<svg xmlns="http://www.w3.org/2000/svg" width="1200" height="630" viewBox="0 0 1200 630">
  <defs>
    <linearGradient id="bg" x1="0" y1="0" x2="1" y2="1">
      <stop offset="0" stop-color="#0a0b10"/>
      <stop offset="1" stop-color="#0d1117"/>
    </linearGradient>
    <radialGradient id="g1" cx="15%" cy="10%" r="60%">
      <stop offset="0" stop-color="#7ee787" stop-opacity="0.18"/>
      <stop offset="1" stop-color="#7ee787" stop-opacity="0"/>
    </radialGradient>
    <radialGradient id="g2" cx="95%" cy="0%" r="55%">
      <stop offset="0" stop-color="#d2a8ff" stop-opacity="0.2"/>
      <stop offset="1" stop-color="#d2a8ff" stop-opacity="0"/>
    </radialGradient>
    <linearGradient id="grad" x1="0" y1="0" x2="1" y2="0">
      <stop offset="0" stop-color="#7ee787"/>
      <stop offset="0.5" stop-color="#58a6ff"/>
      <stop offset="1" stop-color="#d2a8ff"/>
    </linearGradient>
  </defs>

  <rect width="1200" height="630" fill="url(#bg)"/>
  <rect width="1200" height="630" fill="url(#g1)"/>
  <rect width="1200" height="630" fill="url(#g2)"/>
  <rect x="1" y="1" width="1198" height="628" rx="0" fill="none" stroke="#ffffff14"/>

  <!-- logo mark -->
  <g transform="translate(110,150)">
    <rect width="64" height="64" rx="16" fill="#0d1117" stroke="#7ee78755"/>
    <path d="M18 46V20l14 10 14-10v26" fill="none" stroke="#7ee787" stroke-width="5" stroke-linecap="round" stroke-linejoin="round"/>
    <circle cx="32" cy="40" r="4.5" fill="#d2a8ff"/>
  </g>

  <text x="190" y="198" font-family="Inter, Arial, sans-serif" font-size="34" font-weight="700" fill="#ffffff">ProfileForge</text>

  <text x="108" y="320" font-family="Inter, Arial, sans-serif" font-size="76" font-weight="800" fill="#ffffff">GitHub Profile</text>
  <text x="108" y="408" font-family="Inter, Arial, sans-serif" font-size="76" font-weight="800" fill="url(#grad)">README Generator</text>

  <text x="110" y="470" font-family="Inter, Arial, sans-serif" font-size="28" fill="#9aa4b2">18+ templates · live preview · stats · snake · pac-man · 3D graphs</text>

  <g font-family="Inter, Arial, sans-serif" font-size="20" font-weight="600">
    <rect x="110" y="510" width="160" height="44" rx="22" fill="#7ee78718" stroke="#7ee78740"/>
    <text x="190" y="538" fill="#7ee787" text-anchor="middle">Free</text>
    <rect x="286" y="510" width="200" height="44" rx="22" fill="#58a6ff18" stroke="#58a6ff40"/>
    <text x="386" y="538" fill="#9ecbff" text-anchor="middle">Open Source</text>
    <rect x="502" y="510" width="230" height="44" rx="22" fill="#d2a8ff18" stroke="#d2a8ff40"/>
    <text x="617" y="538" fill="#d8b9ff" text-anchor="middle">No sign-up</text>
  </g>
</svg>
